<svg xmlns="http://www.w3.org/2000/svg" viewBox="0 0 70 100" width="70" height="100">
  <!-- Shock mount outer ring -->
  <circle cx="35" cy="35" r="28" fill="none" stroke="#4A4A4A" stroke-width="2.5"/>
  
  <!-- Shock mount inner supports -->
  <line x1="12" y1="20" x2="25" y2="28" stroke="#4A4A4A" stroke-width="2"/>
  <line x1="58" y1="20" x2="45" y2="28" stroke="#4A4A4A" stroke-width="2"/>
  <line x1="12" y1="50" x2="25" y2="42" stroke="#4A4A4A" stroke-width="2"/>
  <line x1="58" y1="50" x2="45" y2="42" stroke="#4A4A4A" stroke-width="2"/>
  <line x1="20" y1="12" x2="28" y2="22" stroke="#4A4A4A" stroke-width="2"/>
  <line x1="50" y1="12" x2="42" y2="22" stroke="#4A4A4A" stroke-width="2"/>
  <line x1="20" y1="58" x2="28" y2="48" stroke="#4A4A4A" stroke-width="2"/>
  <line x1="50" y1="58" x2="42" y2="48" stroke="#4A4A4A" stroke-width="2"/>
  
  <!-- Main mesh screen (cylindrical) -->
  <rect x="25" y="15" width="20" height="40" fill="rgba(42, 42, 42, 0.3)" stroke="#2A2A2A" stroke-width="1.5" rx="10"/>
  
  <!-- Mesh pattern for screen -->
  <defs>
    <pattern id="meshPattern" x="0" y="0" width="4" height="4" patternUnits="userSpaceOnUse">
      <rect width="4" height="4" fill="transparent"/>
      <!-- Horizontal lines -->
      <rect x="0" y="0" width="4" height="0.5" fill="#2A2A2A"/>
      <rect x="0" y="3.5" width="4" height="0.5" fill="#2A2A2A"/>
      <!-- Vertical lines -->
      <rect x="0" y="0" width="0.5" height="4" fill="#2A2A2A"/>
      <rect x="3.5" y="0" width="0.5" height="4" fill="#2A2A2A"/>
      <!-- Corner dots for realism -->
      <circle cx="2" cy="2" r="0.3" fill="#404040"/>
    </pattern>
  </defs>
  
  <!-- Apply mesh pattern -->
  <rect x="26" y="16" width="18" height="38" fill="url(#meshPattern)" rx="9"/>
  
  <!-- Additional fine mesh lines for realism -->
  <defs>
    <pattern id="fineMesh" x="0" y="0" width="2" height="2" patternUnits="userSpaceOnUse">
      <rect width="2" height="2" fill="transparent"/>
      <!-- More pronounced grid lines -->
      <rect x="0" y="0" width="0.3" height="2" fill="#1A1A1A"/>
      <rect x="0" y="0" width="2" height="0.3" fill="#1A1A1A"/>
      <rect x="1.7" y="0" width="0.3" height="2" fill="#1A1A1A"/>
      <rect x="0" y="1.7" width="2" height="0.3" fill="#1A1A1A"/>
    </pattern>
  </defs>
  
  <!-- Apply fine mesh overlay -->
  <rect x="26" y="16" width="18" height="38" fill="url(#fineMesh)" rx="9" opacity="0.8"/>
  
  <!-- Upper metallic body -->
  <rect x="28" y="55" width="14" height="12" fill="url(#silverBodyGradient)" stroke="#1A1A1A" stroke-width="1" rx="2"/>
  
  <!-- Body detail rings -->
  <rect x="27" y="58" width="16" height="1" fill="#A0A0A0"/>
  <rect x="27" y="62" width="16" height="1" fill="#A0A0A0"/>
  
  <!-- Lower metallic section -->
  <rect x="30" y="67" width="10" height="15" fill="url(#silverBodyGradient)" stroke="#1A1A1A" stroke-width="1" rx="1"/>
  
  <!-- Connection detail -->
  <rect x="32" y="82" width="6" height="8" fill="url(#silverGradient)" stroke="#2A2A2A" stroke-width="1" rx="1"/>
  
  <!-- Gradient definitions -->
  <defs>
    <linearGradient id="meshGradient" x1="0%" y1="0%" x2="100%" y2="0%">
      <stop offset="0%" style="stop-color:#4A4A4A;stop-opacity:1" />
      <stop offset="50%" style="stop-color:#3A3A3A;stop-opacity:1" />
      <stop offset="100%" style="stop-color:#2A2A2A;stop-opacity:1" />
    </linearGradient>
    
    <linearGradient id="silverGradient" x1="0%" y1="0%" x2="100%" y2="0%">
      <stop offset="0%" style="stop-color:#E8E8E8;stop-opacity:1" />
      <stop offset="50%" style="stop-color:#C0C0C0;stop-opacity:1" />
      <stop offset="100%" style="stop-color:#A0A0A0;stop-opacity:1" />
    </linearGradient>
    
    <linearGradient id="silverBodyGradient" x1="0%" y1="0%" x2="100%" y2="0%">
      <stop offset="0%" style="stop-color:#F0F0F0;stop-opacity:1" />
      <stop offset="30%" style="stop-color:#D0D0D0;stop-opacity:1" />
      <stop offset="70%" style="stop-color:#B0B0B0;stop-opacity:1" />
      <stop offset="100%" style="stop-color:#909090;stop-opacity:1" />
    </linearGradient>
  </defs>
</svg> 