<svg xmlns="http://www.w3.org/2000/svg" viewBox="0 0 120 100" width="120" height="100">
  <!-- Crown -->
  <path d="M20 45 L30 35 L40 45 L50 30 L60 45 L70 35 L80 45 L85 50 L15 50 Z" 
        fill="url(#goldGradient)" stroke="#B8860B" stroke-width="1"/>
  
  <!-- Crown band -->
  <rect x="15" y="45" width="70" height="8" fill="url(#goldGradient)" stroke="#B8860B" stroke-width="1"/>
  
  <!-- Crown jewels -->
  <circle cx="35" cy="42" r="2" fill="#FFD700"/>
  <circle cx="50" cy="38" r="2" fill="#FFD700"/>
  <circle cx="65" cy="42" r="2" fill="#FFD700"/>
  
  <!-- Letter M -->
  <path d="M15 60 L15 90 L25 90 L25 75 L35 85 L45 75 L45 90 L55 90 L55 60 L45 60 L35 70 L25 60 Z" 
        fill="#4A4A4A" stroke="#333" stroke-width="1"/>
  
  <!-- Letter S -->
  <path d="M65 60 C75 60 80 65 80 70 C80 75 75 75 70 75 C75 75 80 80 80 85 C80 90 75 95 65 95 L60 95 C70 95 75 90 75 85 C75 82 72 80 70 80 C72 80 75 78 75 75 C75 70 70 65 60 65 Z" 
        fill="#4A4A4A" stroke="#333" stroke-width="1"/>
  
  <!-- Gradient definitions -->
  <defs>
    <linearGradient id="goldGradient" x1="0%" y1="0%" x2="100%" y2="100%">
      <stop offset="0%" style="stop-color:#FFD700;stop-opacity:1" />
      <stop offset="50%" style="stop-color:#FFA500;stop-opacity:1" />
      <stop offset="100%" style="stop-color:#FF8C00;stop-opacity:1" />
    </linearGradient>
  </defs>
</svg> 